<svg id="screenshot" viewBox="-0.00000893608580554428 -0.00000893608580554428 256.0000178721716 256.0000178721715" width="256.0000178721716" height="256.0000178721715" version="1.1" xmlns:xlink="http://www.w3.org/1999/xlink" xmlns="http://www.w3.org/2000/svg"><g id="shape-b904d060-c135-11eb-82c9-ab286d74c1dc"><g><g id="shape-b904f770-c135-11eb-82c9-ab286d74c1dc"><rect rx="0" ry="0" x="0" y="0" transform="matrix(1,0,0,0.9999999999999998,0,2.842170943040401e-14)" width="256" height="256" style="fill: rgb(255, 255, 255); fill-opacity: 1;"/></g><g id="shape-b904f771-c135-11eb-82c9-ab286d74c1dc"><g><path d="M320 6925 l0 -275 865 0 865 0 0 -2345 0 -2345 330 0 330 0 0 2345 0
2345 865 0 865 0 0 275 0 275 -2060 0 -2060 0 0 -275z M5580 4580 l0 -2620
768 0 c990 1 1235 12 1507 71 380 83 667 224 886 436 200 194 320 413 381 696
30 139 33 486 5 617 -52 247 -145 421 -310 576 -208 198 -452 309 -854 390
-14 3 -23 12 -23 23 0 14 23 26 113 55 379 126 618 358 738 717 44 133 60 234
60 399 0 338 -89 578 -294 796 -216 230 -536 369 -1002 436 -143 21 -191 22
-1062 25 l-913 4 0 -2621z m1835 2047 c528 -86 744 -266 786 -658 19 -170 -13
-374 -78 -502 -110 -219 -291 -347 -582 -413 -206 -46 -329 -54 -838 -54
l-473 0 0 826 0 826 543 -5 c434 -3 562 -7 642 -20z m50 -2202 c644 -75 954
-293 1026 -724 14 -86 11 -296 -6 -393 -68 -392 -325 -627 -800 -733 -208 -46
-246 -48 -862 -52 l-593 -5 0 961 0 961 553 0 c427 0 582 -3 682 -15z" transform="translate(7.5, 8) scale(0.25104166666666666, 0.25) translate(0.000000,960.000000) scale(0.100000,-0.100000)" fill="#000000" stroke="none"/></g></g></g></g></svg>